<mxfile host="app.diagrams.net" agent="Mozilla/5.0 (Macintosh; Intel Mac OS X 10_15_7) AppleWebKit/537.36 (KHTML, like Gecko) Chrome/130.0.0.0 Safari/537.36" version="24.8.0">
  <diagram name="Page-1" id="EZDvGcNdxOAjGA6KpZpp">
    <mxGraphModel dx="662" dy="349" grid="1" gridSize="10" guides="1" tooltips="1" connect="1" arrows="1" fold="1" page="1" pageScale="1" pageWidth="850" pageHeight="1100" math="0" shadow="0">
      <root>
        <mxCell id="0" />
        <mxCell id="1" parent="0" />
        <mxCell id="9b-ZpzCVFuw_zXCoMFuK-7" value="Knowledge base" style="whiteSpace=wrap;html=1;rounded=0;" vertex="1" parent="1">
          <mxGeometry x="260" y="230" width="120" height="60" as="geometry" />
        </mxCell>
        <mxCell id="9b-ZpzCVFuw_zXCoMFuK-3" value="" style="edgeStyle=orthogonalEdgeStyle;rounded=0;orthogonalLoop=1;jettySize=auto;html=1;" edge="1" parent="1" source="9b-ZpzCVFuw_zXCoMFuK-1" target="9b-ZpzCVFuw_zXCoMFuK-2">
          <mxGeometry relative="1" as="geometry">
            <Array as="points">
              <mxPoint x="190" y="110" />
              <mxPoint x="190" y="110" />
            </Array>
          </mxGeometry>
        </mxCell>
        <mxCell id="9b-ZpzCVFuw_zXCoMFuK-4" value="Query" style="edgeLabel;html=1;align=center;verticalAlign=middle;resizable=0;points=[];" vertex="1" connectable="0" parent="9b-ZpzCVFuw_zXCoMFuK-3">
          <mxGeometry x="-0.2" y="1" relative="1" as="geometry">
            <mxPoint as="offset" />
          </mxGeometry>
        </mxCell>
        <mxCell id="9b-ZpzCVFuw_zXCoMFuK-1" value="Front end user" style="rounded=0;whiteSpace=wrap;html=1;" vertex="1" parent="1">
          <mxGeometry x="60" y="90" width="120" height="60" as="geometry" />
        </mxCell>
        <mxCell id="9b-ZpzCVFuw_zXCoMFuK-8" value="" style="edgeStyle=orthogonalEdgeStyle;rounded=0;orthogonalLoop=1;jettySize=auto;html=1;" edge="1" parent="1" source="9b-ZpzCVFuw_zXCoMFuK-2" target="9b-ZpzCVFuw_zXCoMFuK-7">
          <mxGeometry relative="1" as="geometry">
            <Array as="points">
              <mxPoint x="290" y="200" />
              <mxPoint x="290" y="200" />
            </Array>
          </mxGeometry>
        </mxCell>
        <mxCell id="9b-ZpzCVFuw_zXCoMFuK-9" value="City name" style="edgeLabel;html=1;align=center;verticalAlign=middle;resizable=0;points=[];rotation=-90;" vertex="1" connectable="0" parent="9b-ZpzCVFuw_zXCoMFuK-8">
          <mxGeometry x="-0.1" relative="1" as="geometry">
            <mxPoint x="-10" as="offset" />
          </mxGeometry>
        </mxCell>
        <mxCell id="9b-ZpzCVFuw_zXCoMFuK-19" style="edgeStyle=orthogonalEdgeStyle;rounded=0;orthogonalLoop=1;jettySize=auto;html=1;exitX=0;exitY=0.75;exitDx=0;exitDy=0;entryX=1;entryY=0.75;entryDx=0;entryDy=0;" edge="1" parent="1" source="9b-ZpzCVFuw_zXCoMFuK-2" target="9b-ZpzCVFuw_zXCoMFuK-1">
          <mxGeometry relative="1" as="geometry" />
        </mxCell>
        <mxCell id="9b-ZpzCVFuw_zXCoMFuK-20" value="Response" style="edgeLabel;html=1;align=center;verticalAlign=middle;resizable=0;points=[];" vertex="1" connectable="0" parent="9b-ZpzCVFuw_zXCoMFuK-19">
          <mxGeometry x="0.0083" relative="1" as="geometry">
            <mxPoint as="offset" />
          </mxGeometry>
        </mxCell>
        <mxCell id="9b-ZpzCVFuw_zXCoMFuK-2" value="Bedrock Claude Haiku" style="whiteSpace=wrap;html=1;rounded=0;" vertex="1" parent="1">
          <mxGeometry x="260" y="90" width="120" height="60" as="geometry" />
        </mxCell>
        <mxCell id="9b-ZpzCVFuw_zXCoMFuK-26" style="edgeStyle=orthogonalEdgeStyle;rounded=0;orthogonalLoop=1;jettySize=auto;html=1;exitX=0;exitY=0.5;exitDx=0;exitDy=0;entryX=1;entryY=0.5;entryDx=0;entryDy=0;" edge="1" parent="1" source="9b-ZpzCVFuw_zXCoMFuK-5" target="9b-ZpzCVFuw_zXCoMFuK-2">
          <mxGeometry relative="1" as="geometry" />
        </mxCell>
        <mxCell id="9b-ZpzCVFuw_zXCoMFuK-27" value="Flight details" style="edgeLabel;html=1;align=center;verticalAlign=middle;resizable=0;points=[];" vertex="1" connectable="0" parent="9b-ZpzCVFuw_zXCoMFuK-26">
          <mxGeometry x="-0.3875" y="1" relative="1" as="geometry">
            <mxPoint x="-11" y="-1" as="offset" />
          </mxGeometry>
        </mxCell>
        <mxCell id="9b-ZpzCVFuw_zXCoMFuK-5" value="Amadeous" style="whiteSpace=wrap;html=1;rounded=0;" vertex="1" parent="1">
          <mxGeometry x="460" y="90" width="120" height="60" as="geometry" />
        </mxCell>
        <mxCell id="9b-ZpzCVFuw_zXCoMFuK-10" style="edgeStyle=orthogonalEdgeStyle;rounded=0;orthogonalLoop=1;jettySize=auto;html=1;exitX=0.75;exitY=0;exitDx=0;exitDy=0;entryX=0.75;entryY=1;entryDx=0;entryDy=0;" edge="1" parent="1" source="9b-ZpzCVFuw_zXCoMFuK-7" target="9b-ZpzCVFuw_zXCoMFuK-2">
          <mxGeometry relative="1" as="geometry" />
        </mxCell>
        <mxCell id="9b-ZpzCVFuw_zXCoMFuK-12" value="IATA code" style="edgeLabel;html=1;align=center;verticalAlign=middle;resizable=0;points=[];rotation=-90;" vertex="1" connectable="0" parent="9b-ZpzCVFuw_zXCoMFuK-10">
          <mxGeometry x="-0.125" relative="1" as="geometry">
            <mxPoint x="-10" as="offset" />
          </mxGeometry>
        </mxCell>
        <mxCell id="9b-ZpzCVFuw_zXCoMFuK-13" value="Airport name" style="edgeLabel;html=1;align=center;verticalAlign=middle;resizable=0;points=[];rotation=-90;" vertex="1" connectable="0" parent="9b-ZpzCVFuw_zXCoMFuK-10">
          <mxGeometry x="-0.0536" relative="1" as="geometry">
            <mxPoint x="10" as="offset" />
          </mxGeometry>
        </mxCell>
        <mxCell id="9b-ZpzCVFuw_zXCoMFuK-21" value="" style="edgeStyle=orthogonalEdgeStyle;rounded=0;orthogonalLoop=1;jettySize=auto;html=1;entryX=0.25;entryY=1;entryDx=0;entryDy=0;" edge="1" parent="1" target="9b-ZpzCVFuw_zXCoMFuK-5">
          <mxGeometry relative="1" as="geometry">
            <mxPoint x="380" y="250" as="sourcePoint" />
            <mxPoint x="460" y="250" as="targetPoint" />
            <Array as="points">
              <mxPoint x="490" y="250" />
            </Array>
          </mxGeometry>
        </mxCell>
        <mxCell id="9b-ZpzCVFuw_zXCoMFuK-22" value="IATA code,&lt;div style=&quot;font-size: 9px;&quot;&gt;Airport, city name&lt;/div&gt;" style="edgeLabel;html=1;align=center;verticalAlign=middle;resizable=0;points=[];fontSize=9;rotation=-90;" vertex="1" connectable="0" parent="9b-ZpzCVFuw_zXCoMFuK-21">
          <mxGeometry x="0.075" relative="1" as="geometry">
            <mxPoint x="-20" y="-47" as="offset" />
          </mxGeometry>
        </mxCell>
      </root>
    </mxGraphModel>
  </diagram>
</mxfile>
